PathFileType	4	(X/Y/Z)	D:\TRACE\spotREDO_2-26-24\spot_justArm_Motion_2_1-platform.trc
DataRate	CameraRate	NumFrames	NumMarkers	Units	OrigDataRate	OrigDataStartFrame	OrigNumFrames
100.00	100.00	      48	5	mm	100.00	4376	      7000
Frame#	Time	Left_Front			Right_Front			Left_Aft			Right_Aft			Post			
		X1	Y1	Z1	X2	Y2	Z2	X3	Y3	Z3	X4	Y4	Z4	X5	Y5	Z5	

4376	43.750	-682.59113	-20.75144	-579.77100	732.43524	-9.74299	-495.15292	-753.76093	22.41615	638.70386	815.71094	28.84184	643.02795	27.00163	594.56366	-1004.32959	
4377	43.760	-681.27698	-19.58628	-579.33350	733.57587	-8.46671	-494.93677	-752.47974	21.15673	638.96899	816.87610	27.68131	643.41797	28.11419	596.71765	-1002.23285	
4378	43.770	-680.29144	-18.08618	-579.04578	734.40314	-7.27551	-494.74890	-751.62170	19.80557	639.42645	818.12543	26.07232	643.70862	29.40524	599.06305	-1000.73346	
4379	43.780	-679.02478	-16.96881	-578.67432	735.89862	-6.08988	-494.30179	-750.38849	18.39338	639.85645	819.06915	24.78254	644.23413	30.83086	601.41998	-998.65594	
4380	43.790	-678.03876	-15.44558	-578.42810	736.76404	-4.82586	-494.08206	-749.12878	16.93112	640.32599	820.02948	23.27939	644.47595	31.58872	603.77496	-997.18903	
4381	43.800	-676.95959	-13.97418	-578.10168	737.69995	-3.72745	-493.89111	-748.26465	15.51662	640.57001	821.27106	21.64306	644.78107	32.54880	605.98926	-995.56311	
4382	43.810	-675.82513	-12.97286	-577.80695	738.80042	-2.38985	-493.46527	-746.91089	14.16282	641.17029	822.10583	20.17058	645.08209	33.59945	608.22736	-993.72089	
4383	43.820	-674.58008	-11.27166	-577.37555	740.18292	-1.27742	-492.90375	-745.91498	12.74043	641.46191	823.45142	19.20305	645.69739	34.59792	610.72888	-992.12250	
4384	43.830	-673.60901	-9.98297	-577.03687	740.99109	-0.12651	-492.68665	-744.86554	11.41752	641.81793	824.34094	17.78264	646.09265	36.13382	613.11401	-990.01355	
4385	43.840	-672.57007	-8.40694	-576.85413	742.40027	1.04584	-492.24216	-743.70148	9.98214	642.41278	825.53168	16.38072	646.40906	36.96032	615.43347	-988.49316	
4386	43.850	-671.59241	-7.28190	-576.40918	743.17694	2.14916	-492.04001	-742.30914	9.02535	642.79120	826.60724	14.72091	646.81927	37.69608	617.70837	-986.72424	
4387	43.860	-670.32111	-5.79012	-576.10455	744.56976	3.52148	-491.57748	-741.59241	7.07315	642.94818	827.78717	13.70937	647.19220	38.94004	620.03137	-985.08191	
4388	43.870	-669.42059	-4.36722	-575.55450	745.26135	4.76195	-491.35083	-740.71985	5.60786	643.28864	828.49219	12.03369	647.68488	39.76910	622.51605	-983.23328	
4389	43.880	-668.37671	-2.93776	-575.30670	746.39948	5.83065	-490.76447	-739.56616	4.06644	643.67462	829.65308	10.82063	648.01385	40.93721	624.78656	-981.38831	
4390	43.890	-667.56006	-1.55273	-575.05408	747.55371	7.15162	-490.43814	-738.62238	2.73104	644.07996	830.82672	9.06080	648.16541	42.07625	627.16290	-979.42224	
4391	43.900	-666.35010	-0.37965	-574.68433	748.41486	8.35039	-490.11713	-737.44226	1.26956	644.57306	831.61725	7.68754	648.69922	42.83841	629.63568	-977.68988	
4392	43.910	-665.41119	1.30977	-574.14142	749.36169	9.63889	-489.83301	-736.70276	-0.43514	644.87445	832.51288	6.24042	649.08362	43.76830	631.97632	-975.66980	
4393	43.920	-664.37836	2.55274	-573.75165	750.23871	10.69643	-489.35126	-735.44440	-1.65606	645.29645	833.66449	4.52137	649.53766	44.75966	634.46497	-973.59192	
4394	43.930	-663.44305	4.21749	-573.53021	751.32397	12.10497	-489.18625	-734.48456	-3.19794	645.77032	834.56177	3.30259	649.89771	45.62773	636.83484	-971.85718	
4395	43.940	-662.46368	5.45231	-573.17096	752.28735	13.27337	-488.57864	-733.62830	-4.51471	646.02814	835.72968	1.91033	650.35571	46.64142	638.98254	-969.86261	
4396	43.950	-661.56293	6.85591	-572.80804	752.84485	14.52300	-488.44254	-732.60846	-6.08349	646.41351	836.66895	0.62432	650.64496	47.56406	641.26221	-967.94684	
4397	43.960	-660.47382	8.12488	-572.29816	754.29156	15.64304	-487.77301	-731.77673	-7.36034	646.80621	837.44745	-1.43449	650.81409	48.17693	643.54028	-966.13757	
4398	43.970	-659.83148	9.71664	-571.98877	754.92828	16.75344	-487.45938	-730.79773	-8.88269	647.02911	838.51996	-2.80606	650.95154	49.51223	645.84210	-964.34033	
4399	43.980	-658.97125	10.85340	-571.60004	755.83417	18.00756	-487.11478	-729.96954	-10.27366	647.25305	839.32294	-3.96608	651.50586	50.12814	648.12732	-962.49994	
4400	43.990	-658.20978	12.28619	-571.29224	756.98187	18.87620	-486.76016	-729.03497	-11.72853	647.66205	840.13525	-5.55927	651.59619	51.03783	650.40466	-960.87097	
4401	44.000	-657.17340	13.41755	-570.95776	757.60034	20.48986	-486.23056	-728.26331	-13.08453	647.97723	841.19977	-6.60846	652.26398	51.83109	652.61218	-958.99866	
4402	44.010	-656.29156	14.96958	-570.40784	758.21576	21.58177	-486.14392	-727.45135	-14.55271	648.43481	841.83228	-8.14524	652.47461	52.51014	654.70239	-957.39557	
4403	44.020	-655.52594	16.32176	-569.98810	759.08264	22.59843	-485.47491	-726.52112	-15.99666	648.72418	842.42090	-9.84760	652.66833	53.40831	656.99548	-955.49615	
4404	44.030	-654.91394	17.63117	-569.65704	759.87427	23.62254	-485.08655	-725.77441	-17.25517	648.98151	843.63129	-11.03034	653.03290	53.83181	659.26593	-953.91052	
4405	44.040	-654.19659	19.01156	-569.26593	760.69733	25.08806	-484.79303	-724.97461	-18.81369	649.41949	844.30786	-12.39683	653.45367	54.90439	661.55701	-952.06641	
4406	44.050	-653.33936	20.06909	-568.86975	761.36957	25.93134	-484.54001	-724.43365	-19.92762	649.63904	844.91766	-13.82187	653.51611	55.76725	663.63123	-950.04022	
4407	44.060	-652.88684	21.72700	-568.42950	761.98315	27.17526	-483.94623	-723.44598	-21.62854	650.03204	845.65948	-15.05079	654.02899	56.30582	665.83795	-948.24036	
4408	44.070	-652.14746	22.62882	-568.09290	762.53406	28.12359	-483.75317	-723.09729	-22.78053	650.04425	846.21973	-16.50764	654.06342	57.10615	667.93982	-946.18829	
4409	44.080	-651.51917	24.01644	-567.73303	763.45227	29.39474	-483.41513	-722.33850	-24.14596	650.54199	846.85516	-18.17107	654.45752	57.60518	669.89862	-944.25061	
4410	44.090	-650.73688	25.29594	-567.29053	763.83801	30.34168	-483.03183	-721.72314	-25.38071	650.66016	847.54059	-19.00633	654.55304	58.35847	671.95612	-942.41553	
4411	44.100	-650.36261	26.45743	-566.85669	764.37506	31.59328	-482.70261	-721.16315	-26.63248	650.97559	848.09625	-20.26252	655.21387	58.57146	673.93097	-940.80359	
4412	44.110	-649.78784	27.54775	-566.56573	764.76208	32.58175	-482.34009	-720.57050	-27.98012	651.18530	848.79938	-21.43568	655.41296	59.25370	675.79016	-939.18585	
4413	44.120	-649.12006	28.70841	-566.10193	765.53882	33.69583	-481.73236	-719.92163	-29.15582	651.52484	849.35394	-22.95185	655.46613	59.67704	677.80127	-937.48767	
4414	44.130	-648.86249	29.84819	-565.91144	765.97711	34.61677	-481.60223	-719.56763	-30.32636	651.83038	849.55157	-24.16661	655.52338	60.36202	679.43475	-935.98401	
4415	44.140	-648.28125	31.08545	-565.63208	766.36139	35.33923	-481.11038	-718.98962	-31.31738	652.01563	850.15436	-25.06084	655.86273	60.56846	681.16461	-934.76917	
4416	44.150	-647.99219	32.19510	-565.13318	766.73193	36.37684	-480.81583	-718.69318	-32.70071	652.26691	850.89752	-26.22631	656.43042	60.97792	682.93445	-933.09766	
4417	44.160	-647.65308	33.23789	-564.85486	766.91321	37.43584	-480.49097	-718.38538	-33.77969	652.46936	850.81909	-27.42455	656.23395	61.22169	684.71301	-931.95441	
4418	44.170	-647.13910	34.10864	-564.46179	767.07629	38.23445	-480.28671	-718.15686	-34.86954	652.86615	851.22717	-29.09906	656.35516	61.74434	686.44873	-930.35028	
4419	44.180	-647.30627	35.30412	-564.13379	767.50452	39.14499	-479.89383	-717.73560	-36.13815	653.03137	851.42273	-29.60263	656.67780	62.23515	688.19073	-928.71600	
4420	44.190	-646.89606	36.33126	-563.76111	767.80011	39.85931	-479.46851	-717.71185	-36.91677	653.31848	851.70721	-30.87341	657.17621	62.02286	689.90302	-927.44159	
4421	44.200	-646.89777	37.14067	-563.52228	768.03223	40.83687	-479.23340	-717.35474	-38.13842	653.39978	851.95227	-31.84623	657.34192	62.20539	691.33868	-925.87897	
4422	44.210	-646.60876	38.30729	-563.06097	768.14563	41.73772	-478.91620	-717.31317	-39.22675	653.64105	852.04480	-32.75997	657.56055	61.99731	692.85779	-924.41559	
4423	44.220	-646.50085	38.94771	-562.76117	768.21851	42.45352	-478.75876	-717.28308	-40.10294	653.83051	851.92883	-33.90971	657.71503	62.46710	694.38800	-922.83606	
